<?xml version="1.0" standalone="no"?>
<!DOCTYPE svg PUBLIC "-//W3C//DTD SVG 20010904//EN"
 "http://www.w3.org/TR/2001/REC-SVG-20010904/DTD/svg10.dtd">
<svg version="1.0" xmlns="http://www.w3.org/2000/svg"
 width="980.000000pt" height="980.000000pt" viewBox="0 0 980.000000 980.000000"
 preserveAspectRatio="xMidYMid meet">

<g transform="translate(0.000000,980.000000) scale(0.100000,-0.100000)"
fill="#fff" stroke="none">
<path d="M3090 9790 c-195 -16 -476 -76 -707 -151 -736 -239 -1378 -723 -1802
-1358 -812 -1216 -769 -2800 109 -3966 525 -698 1306 -1173 2170 -1321 212
-36 429 -47 709 -34 321 14 475 34 703 90 287 72 666 231 946 398 l94 55 1746
-1746 c961 -961 1751 -1747 1757 -1747 5 0 229 219 497 487 l488 488 -1751
1751 -1752 1752 51 83 c99 166 263 517 328 704 123 352 168 660 168 1150 0
320 -7 392 -61 649 -91 438 -283 883 -540 1254 -198 285 -483 582 -758 788
-494 372 -1113 616 -1680 663 -173 15 -593 21 -715 11z m625 -986 c559 -68
1030 -298 1425 -693 414 -414 633 -848 712 -1411 20 -143 17 -546 -5 -685 -40
-259 -109 -480 -221 -710 -443 -907 -1397 -1452 -2391 -1366 -606 53 -1064
262 -1506 688 -590 569 -850 1358 -713 2164 112 657 503 1249 1079 1634 202
135 450 245 698 310 341 89 599 108 922 69z"/>
</g>
</svg>
